<svg width="607" height="96" viewBox="0 0 607 96" fill="none" xmlns="http://www.w3.org/2000/svg">
<rect x="335.9" y="13.8979" width="68.4949" height="71.9274" fill="#FF133E"/>
<path d="M25.7247 79.3333C22.1549 79.3333 18.8366 78.6797 15.7697 77.3725C12.753 76.0653 10.1386 74.2553 7.92637 71.9425C5.76443 69.5795 4.18068 66.8393 3.17513 63.7221L11.6972 60.0267C13.0547 63.2445 15.0155 65.7835 17.5797 67.6438C20.1438 69.4538 23.0348 70.3588 26.2526 70.3588C28.0626 70.3588 29.6212 70.0823 30.9284 69.5292C32.2859 68.9259 33.3166 68.1214 34.0205 67.1159C34.7746 66.1103 35.1517 64.9037 35.1517 63.4959C35.1517 61.8367 34.6489 60.4792 33.6434 59.4234C32.6881 58.3173 31.2301 57.4626 29.2692 56.8592L18.4847 53.3901C14.1105 52.0326 10.8173 49.9963 8.60512 47.2813C6.3929 44.5663 5.28679 41.3737 5.28679 37.7034C5.28679 34.4857 6.06609 31.645 7.6247 29.1814C9.23359 26.7178 11.4458 24.8072 14.2614 23.4497C17.1272 22.042 20.3952 21.3381 24.0655 21.3381C27.4341 21.3381 30.5262 21.9414 33.3417 23.1481C36.1573 24.3045 38.5706 25.9385 40.5817 28.0501C42.6431 30.1115 44.1766 32.55 45.1821 35.3655L36.7355 39.1364C35.6294 36.3208 33.9702 34.1589 31.758 32.6505C29.5458 31.0919 26.9816 30.3126 24.0655 30.3126C22.3561 30.3126 20.8477 30.6143 19.5405 31.2176C18.2333 31.7707 17.2026 32.5751 16.4484 33.631C15.7445 34.6365 15.3926 35.8432 15.3926 37.2509C15.3926 38.8096 15.8954 40.1922 16.9009 41.3989C17.9065 42.5552 19.4399 43.4602 21.5013 44.1138L31.8334 47.3568C36.3081 48.8148 39.6516 50.8259 41.8638 53.3901C44.1263 55.9542 45.2575 59.1217 45.2575 62.8926C45.2575 66.1103 44.4279 68.951 42.7688 71.4146C41.1096 73.8782 38.822 75.8139 35.9059 77.2217C32.9898 78.6295 29.596 79.3333 25.7247 79.3333ZM65.739 79.3333C62.8732 79.3333 60.3844 78.8557 58.2728 77.9004C56.1611 76.9452 54.5271 75.5877 53.3707 73.8279C52.2143 72.0179 51.6361 69.9314 51.6361 67.5684C51.6361 65.3059 52.1389 63.2948 53.1444 61.5351C54.15 59.7251 55.7086 58.2167 57.8203 57.0101C59.9319 55.8034 62.5966 54.9487 65.8144 54.4459L79.2385 52.2588V59.8005L67.6998 61.7613C65.739 62.1132 64.2809 62.7417 63.3257 63.6467C62.3704 64.5517 61.8927 65.7332 61.8927 67.1913C61.8927 68.5991 62.4207 69.7303 63.4765 70.585C64.5826 71.3895 65.9401 71.7917 67.549 71.7917C69.6104 71.7917 71.4204 71.3643 72.979 70.5096C74.5879 69.6046 75.8197 68.3728 76.6744 66.8142C77.5794 65.2556 78.0319 63.5462 78.0319 61.6859V51.1276C78.0319 49.3679 77.328 47.9098 75.9202 46.7534C74.5627 45.5468 72.7527 44.9434 70.4902 44.9434C68.3786 44.9434 66.4932 45.5216 64.834 46.678C63.2251 47.7841 62.0436 49.2673 61.2894 51.1276L53.2199 47.2059C54.0243 45.044 55.2812 43.1837 56.9907 41.6251C58.7504 40.0162 60.8118 38.7593 63.1748 37.8543C65.5379 36.9493 68.102 36.4968 70.8673 36.4968C74.2359 36.4968 77.2023 37.1253 79.7665 38.3822C82.3306 39.5889 84.3166 41.2983 85.7244 43.5105C87.1824 45.6725 87.9114 48.2115 87.9114 51.1276V78.4283H78.5598V71.4146L80.6714 71.2638C79.6156 73.0235 78.3587 74.5067 76.9006 75.7134C75.4426 76.8697 73.7834 77.7747 71.9231 78.4283C70.0629 79.0317 68.0015 79.3333 65.739 79.3333ZM97.0427 78.4283V37.4018H106.319V45.4713L105.565 44.0384C106.52 41.5748 108.079 39.7146 110.241 38.4576C112.453 37.1504 115.017 36.4968 117.933 36.4968C120.95 36.4968 123.614 37.1504 125.927 38.4576C128.29 39.7648 130.125 41.6 131.433 43.963C132.74 46.2758 133.393 48.9656 133.393 52.0326V78.4283H123.514V54.3705C123.514 52.5605 123.162 51.0019 122.458 49.6947C121.754 48.3874 120.774 47.3819 119.517 46.678C118.31 45.9238 116.877 45.5468 115.218 45.5468C113.609 45.5468 112.176 45.9238 110.919 46.678C109.662 47.3819 108.682 48.3874 107.978 49.6947C107.274 51.0019 106.922 52.5605 106.922 54.3705V78.4283H97.0427ZM160.451 78.8808C155.825 78.8808 152.23 77.6239 149.666 75.11C147.152 72.5459 145.895 68.951 145.895 64.3255V46.2255H138.806V37.4018H139.561C141.572 37.4018 143.13 36.8739 144.236 35.818C145.342 34.7622 145.895 33.2287 145.895 31.2176V28.0501H155.775V37.4018H165.202V46.2255H155.775V63.7975C155.775 65.155 156.001 66.3114 156.454 67.2667C156.957 68.222 157.711 68.951 158.716 69.4538C159.772 69.9566 161.104 70.2079 162.713 70.2079C163.065 70.2079 163.468 70.1828 163.92 70.1325C164.423 70.0823 164.9 70.032 165.353 69.9817V78.4283C164.649 78.5289 163.845 78.6295 162.94 78.73C162.035 78.8306 161.205 78.8808 160.451 78.8808ZM172.901 78.4283V37.4018H182.781V78.4283H172.901ZM172.901 32.8014V22.2431H182.781V32.8014H172.901ZM204.346 79.3333C201.48 79.3333 198.992 78.8557 196.88 77.9004C194.768 76.9452 193.134 75.5877 191.978 73.8279C190.822 72.0179 190.243 69.9314 190.243 67.5684C190.243 65.3059 190.746 63.2948 191.752 61.5351C192.757 59.7251 194.316 58.2167 196.427 57.0101C198.539 55.8034 201.204 54.9487 204.422 54.4459L217.846 52.2588V59.8005L206.307 61.7613C204.346 62.1132 202.888 62.7417 201.933 63.6467C200.978 64.5517 200.5 65.7332 200.5 67.1913C200.5 68.5991 201.028 69.7303 202.084 70.585C203.19 71.3895 204.547 71.7917 206.156 71.7917C208.218 71.7917 210.028 71.3643 211.586 70.5096C213.195 69.6046 214.427 68.3728 215.282 66.8142C216.187 65.2556 216.639 63.5462 216.639 61.6859V51.1276C216.639 49.3679 215.935 47.9098 214.527 46.7534C213.17 45.5468 211.36 44.9434 209.097 44.9434C206.986 44.9434 205.1 45.5216 203.441 46.678C201.832 47.7841 200.651 49.2673 199.897 51.1276L191.827 47.2059C192.632 45.044 193.888 43.1837 195.598 41.6251C197.358 40.0162 199.419 38.7593 201.782 37.8543C204.145 36.9493 206.709 36.4968 209.475 36.4968C212.843 36.4968 215.81 37.1253 218.374 38.3822C220.938 39.5889 222.924 41.2983 224.332 43.5105C225.79 45.6725 226.519 48.2115 226.519 51.1276V78.4283H217.167V71.4146L219.279 71.2638C218.223 73.0235 216.966 74.5067 215.508 75.7134C214.05 76.8697 212.391 77.7747 210.53 78.4283C208.67 79.0317 206.609 79.3333 204.346 79.3333ZM255.56 95.02C252.493 95.02 249.652 94.5172 247.038 93.5116C244.423 92.5061 242.161 91.0983 240.25 89.2883C238.39 87.5286 237.033 85.4421 236.178 83.0287L245.379 79.5596C245.982 81.4701 247.164 83.0036 248.923 84.16C250.733 85.3667 252.945 85.97 255.56 85.97C257.571 85.97 259.331 85.5929 260.839 84.8387C262.398 84.0846 263.604 82.9785 264.459 81.5204C265.314 80.1126 265.741 78.4032 265.741 76.3921V67.0405L267.627 69.303C266.219 71.7666 264.333 73.6268 261.97 74.8838C259.607 76.1407 256.917 76.7692 253.901 76.7692C250.08 76.7692 246.661 75.8893 243.644 74.1296C240.627 72.3699 238.264 69.9566 236.555 66.8896C234.846 63.8227 233.991 60.3787 233.991 56.5576C233.991 52.6862 234.846 49.2422 236.555 46.2255C238.264 43.2089 240.602 40.8458 243.569 39.1364C246.535 37.3766 249.904 36.4968 253.674 36.4968C256.741 36.4968 259.431 37.1504 261.744 38.4576C264.107 39.7146 266.068 41.5497 267.627 43.963L266.269 46.4518V37.4018H275.621V76.3921C275.621 79.9618 274.741 83.1544 272.981 85.97C271.272 88.7855 268.909 90.9978 265.892 92.6066C262.926 94.2155 259.482 95.02 255.56 95.02ZM255.107 67.6438C257.219 67.6438 259.054 67.1913 260.613 66.2863C262.222 65.331 263.479 64.0238 264.384 62.3646C265.289 60.7055 265.741 58.7949 265.741 56.633C265.741 54.5213 265.263 52.6359 264.308 50.9767C263.403 49.2673 262.146 47.9349 260.537 46.9797C258.979 46.0244 257.169 45.5468 255.107 45.5468C253.046 45.5468 251.186 46.0244 249.527 46.9797C247.867 47.9349 246.56 49.2673 245.605 50.9767C244.7 52.6359 244.247 54.5213 244.247 56.633C244.247 58.7446 244.7 60.6301 245.605 62.2892C246.56 63.9484 247.842 65.2556 249.451 66.2109C251.11 67.1662 252.996 67.6438 255.107 67.6438ZM304.908 79.3333C300.886 79.3333 297.216 78.4032 293.897 76.5429C290.629 74.6827 288.015 72.1436 286.054 68.9259C284.144 65.7081 283.188 62.0378 283.188 57.9151C283.188 53.7923 284.144 50.122 286.054 46.9043C288.015 43.6865 290.629 41.1475 293.897 39.2872C297.165 37.4269 300.836 36.4968 304.908 36.4968C308.93 36.4968 312.576 37.4269 315.844 39.2872C319.112 41.1475 321.701 43.6865 323.611 46.9043C325.572 50.0717 326.553 53.742 326.553 57.9151C326.553 62.0378 325.572 65.7081 323.611 68.9259C321.651 72.1436 319.036 74.6827 315.768 76.5429C312.5 78.4032 308.88 79.3333 304.908 79.3333ZM304.908 70.2834C307.12 70.2834 309.056 69.7554 310.715 68.6996C312.425 67.6438 313.757 66.1857 314.712 64.3255C315.718 62.4149 316.221 60.2781 316.221 57.9151C316.221 55.5017 315.718 53.3901 314.712 51.5801C313.757 49.7198 312.425 48.2618 310.715 47.2059C309.056 46.0998 307.12 45.5468 304.908 45.5468C302.646 45.5468 300.66 46.0998 298.95 47.2059C297.241 48.2618 295.883 49.7198 294.878 51.5801C293.923 53.3901 293.445 55.5017 293.445 57.9151C293.445 60.2781 293.923 62.4149 294.878 64.3255C295.883 66.1857 297.241 67.6438 298.95 68.6996C300.66 69.7554 302.646 70.2834 304.908 70.2834ZM367.75 79.3333C364.18 79.3333 360.862 78.6797 357.795 77.3725C354.779 76.0653 352.164 74.2553 349.952 71.9425C347.79 69.5795 346.206 66.8393 345.201 63.7221L353.723 60.0267C355.08 63.2445 357.041 65.7835 359.605 67.6438C362.169 69.4538 365.06 70.3588 368.278 70.3588C370.088 70.3588 371.647 70.0823 372.954 69.5292C374.311 68.9259 375.342 68.1214 376.046 67.1159C376.8 66.1103 377.177 64.9037 377.177 63.4959C377.177 61.8367 376.674 60.4792 375.669 59.4234C374.714 58.3173 373.256 57.4626 371.295 56.8592L360.51 53.3901C356.136 52.0326 352.843 49.9963 350.631 47.2813C348.418 44.5663 347.312 41.3737 347.312 37.7034C347.312 34.4857 348.092 31.645 349.65 29.1814C351.259 26.7178 353.471 24.8072 356.287 23.4497C359.153 22.042 362.421 21.3381 366.091 21.3381C369.46 21.3381 372.552 21.9414 375.367 23.1481C378.183 24.3045 380.596 25.9385 382.607 28.0501C384.669 30.1115 386.202 32.55 387.208 35.3655L378.761 39.1364C377.655 36.3208 375.996 34.1589 373.783 32.6505C371.571 31.0919 369.007 30.3126 366.091 30.3126C364.382 30.3126 362.873 30.6143 361.566 31.2176C360.259 31.7707 359.228 32.5751 358.474 33.631C357.77 34.6365 357.418 35.8432 357.418 37.2509C357.418 38.8096 357.921 40.1922 358.926 41.3989C359.932 42.5552 361.465 43.4602 363.527 44.1138L373.859 47.3568C378.334 48.8148 381.677 50.8259 383.889 53.3901C386.152 55.9542 387.283 59.1217 387.283 62.8926C387.283 66.1103 386.453 68.951 384.794 71.4146C383.135 73.8782 380.847 75.8139 377.931 77.2217C375.015 78.6295 371.622 79.3333 367.75 79.3333ZM407.764 79.3333C404.899 79.3333 402.41 78.8557 400.298 77.9004C398.187 76.9452 396.553 75.5877 395.396 73.8279C394.24 72.0179 393.662 69.9314 393.662 67.5684C393.662 65.3059 394.164 63.2948 395.17 61.5351C396.175 59.7251 397.734 58.2167 399.846 57.0101C401.957 55.8034 404.622 54.9487 407.84 54.4459L421.264 52.2588V59.8005L409.725 61.7613C407.764 62.1132 406.306 62.7417 405.351 63.6467C404.396 64.5517 403.918 65.7332 403.918 67.1913C403.918 68.5991 404.446 69.7303 405.502 70.585C406.608 71.3895 407.966 71.7917 409.574 71.7917C411.636 71.7917 413.446 71.3643 415.004 70.5096C416.613 69.6046 417.845 68.3728 418.7 66.8142C419.605 65.2556 420.057 63.5462 420.057 61.6859V51.1276C420.057 49.3679 419.353 47.9098 417.946 46.7534C416.588 45.5468 414.778 44.9434 412.516 44.9434C410.404 44.9434 408.519 45.5216 406.859 46.678C405.251 47.7841 404.069 49.2673 403.315 51.1276L395.245 47.2059C396.05 45.044 397.307 43.1837 399.016 41.6251C400.776 40.0162 402.837 38.7593 405.2 37.8543C407.563 36.9493 410.128 36.4968 412.893 36.4968C416.261 36.4968 419.228 37.1253 421.792 38.3822C424.356 39.5889 426.342 41.2983 427.75 43.5105C429.208 45.6725 429.937 48.2115 429.937 51.1276V78.4283H420.585V71.4146L422.697 71.2638C421.641 73.0235 420.384 74.5067 418.926 75.7134C417.468 76.8697 415.809 77.7747 413.949 78.4283C412.088 79.0317 410.027 79.3333 407.764 79.3333ZM439.068 78.4283V21.3381H448.948V78.4283H439.068ZM470.513 79.3333C467.648 79.3333 465.159 78.8557 463.047 77.9004C460.935 76.9452 459.301 75.5877 458.145 73.8279C456.989 72.0179 456.41 69.9314 456.41 67.5684C456.41 65.3059 456.913 63.2948 457.919 61.5351C458.924 59.7251 460.483 58.2167 462.595 57.0101C464.706 55.8034 467.371 54.9487 470.589 54.4459L484.013 52.2588V59.8005L472.474 61.7613C470.513 62.1132 469.055 62.7417 468.1 63.6467C467.145 64.5517 466.667 65.7332 466.667 67.1913C466.667 68.5991 467.195 69.7303 468.251 70.585C469.357 71.3895 470.714 71.7917 472.323 71.7917C474.385 71.7917 476.195 71.3643 477.753 70.5096C479.362 69.6046 480.594 68.3728 481.449 66.8142C482.354 65.2556 482.806 63.5462 482.806 61.6859V51.1276C482.806 49.3679 482.102 47.9098 480.695 46.7534C479.337 45.5468 477.527 44.9434 475.265 44.9434C473.153 44.9434 471.267 45.5216 469.608 46.678C467.999 47.7841 466.818 49.2673 466.064 51.1276L457.994 47.2059C458.799 45.044 460.056 43.1837 461.765 41.6251C463.525 40.0162 465.586 38.7593 467.949 37.8543C470.312 36.9493 472.876 36.4968 475.642 36.4968C479.01 36.4968 481.977 37.1253 484.541 38.3822C487.105 39.5889 489.091 41.2983 490.499 43.5105C491.957 45.6725 492.686 48.2115 492.686 51.1276V78.4283H483.334V71.4146L485.446 71.2638C484.39 73.0235 483.133 74.5067 481.675 75.7134C480.217 76.8697 478.558 77.7747 476.697 78.4283C474.837 79.0317 472.776 79.3333 470.513 79.3333ZM498.273 78.4283V70.4342L522.104 42.8318L523.612 46.2255H499.328V37.4018H532.361V45.4713L508.982 73.0738L507.473 69.68H532.512V78.4283H498.273ZM550.57 79.3333C547.704 79.3333 545.215 78.8557 543.103 77.9004C540.992 76.9452 539.358 75.5877 538.201 73.8279C537.045 72.0179 536.467 69.9314 536.467 67.5684C536.467 65.3059 536.97 63.2948 537.975 61.5351C538.981 59.7251 540.539 58.2167 542.651 57.0101C544.763 55.8034 547.427 54.9487 550.645 54.4459L564.069 52.2588V59.8005L552.531 61.7613C550.57 62.1132 549.112 62.7417 548.156 63.6467C547.201 64.5517 546.723 65.7332 546.723 67.1913C546.723 68.5991 547.251 69.7303 548.307 70.585C549.413 71.3895 550.771 71.7917 552.38 71.7917C554.441 71.7917 556.251 71.3643 557.81 70.5096C559.419 69.6046 560.65 68.3728 561.505 66.8142C562.41 65.2556 562.863 63.5462 562.863 61.6859V51.1276C562.863 49.3679 562.159 47.9098 560.751 46.7534C559.393 45.5468 557.583 44.9434 555.321 44.9434C553.209 44.9434 551.324 45.5216 549.665 46.678C548.056 47.7841 546.874 49.2673 546.12 51.1276L538.051 47.2059C538.855 45.044 540.112 43.1837 541.821 41.6251C543.581 40.0162 545.642 38.7593 548.006 37.8543C550.369 36.9493 552.933 36.4968 555.698 36.4968C559.067 36.4968 562.033 37.1253 564.597 38.3822C567.161 39.5889 569.147 41.2983 570.555 43.5105C572.013 45.6725 572.742 48.2115 572.742 51.1276V78.4283H563.39V71.4146L565.502 71.2638C564.446 73.0235 563.189 74.5067 561.731 75.7134C560.273 76.8697 558.614 77.7747 556.754 78.4283C554.894 79.0317 552.832 79.3333 550.57 79.3333ZM581.873 78.4283V37.4018H591.15V46.5272L590.395 45.1697C591.351 42.1027 592.834 39.9659 594.845 38.7593C596.906 37.5526 599.37 36.9493 602.236 36.9493H604.649V45.6976H601.105C598.289 45.6976 596.027 46.5775 594.317 48.3372C592.608 50.0466 591.753 52.4599 591.753 55.5772V78.4283H581.873Z" fill="white"/>
</svg>
