<svg width="69" height="96" viewBox="0 0 69 96" fill="none" xmlns="http://www.w3.org/2000/svg">
<rect x="0.193359" y="13.2147" width="68.4949" height="71.9274" fill="#FF133E"/>
<path d="M35.4317 79.5835C31.862 79.5835 28.5436 78.9299 25.4767 77.6226C22.4601 76.3154 19.8456 74.5054 17.6334 72.1926C15.4715 69.8296 13.8877 67.0895 12.8822 63.9723L21.4042 60.2768C22.7617 63.4946 24.7225 66.0336 27.2867 67.8939C29.8509 69.7039 32.7418 70.6089 35.9596 70.6089C37.7696 70.6089 39.3282 70.3324 40.6354 69.7793C41.9929 69.176 43.0236 68.3715 43.7275 67.366C44.4817 66.3604 44.8587 65.1538 44.8587 63.746C44.8587 62.0868 44.356 60.7293 43.3504 59.6735C42.3951 58.5674 40.9371 57.7127 38.9763 57.1094L28.1917 53.6402C23.8175 52.2827 20.5244 50.2465 18.3121 47.5315C16.0999 44.8165 14.9938 41.6238 14.9938 37.9536C14.9938 34.7358 15.7731 31.8951 17.3317 29.4315C18.9406 26.9679 21.1528 25.0574 23.9684 23.6999C26.8342 22.2921 30.1023 21.5882 33.7725 21.5882C37.1411 21.5882 40.2332 22.1915 43.0488 23.3982C45.8643 24.5546 48.2776 26.1886 50.2887 28.3003C52.3501 30.3616 53.8836 32.8001 54.8891 35.6157L46.4425 39.3865C45.3364 36.5709 43.6772 34.409 41.465 32.9007C39.2528 31.3421 36.6886 30.5628 33.7725 30.5628C32.0631 30.5628 30.5548 30.8644 29.2475 31.4678C27.9403 32.0208 26.9096 32.8252 26.1555 33.8811C25.4516 34.8866 25.0996 36.0933 25.0996 37.5011C25.0996 39.0597 25.6024 40.4423 26.608 41.649C27.6135 42.8054 29.147 43.7104 31.2084 44.364L41.5404 47.6069C46.0151 49.0649 49.3586 51.076 51.5708 53.6402C53.8333 56.2044 54.9646 59.3718 54.9646 63.1427C54.9646 66.3604 54.135 69.2011 52.4758 71.6647C50.8166 74.1283 48.529 76.064 45.6129 77.4718C42.6968 78.8796 39.3031 79.5835 35.4317 79.5835Z" fill="black"/>
</svg>
